<svg xmlns="http://www.w3.org/2000/svg"  width="25" height="25" fill="none" viewBox="0 0 21 25">
  <path fill="#FFF" fill-rule="evenodd" d="M4.081 0h15.872L16.89 3.37H1.03L4.08 0Zm13.936 23.785L21 20.49V1.194l-2.983 3.282v19.308ZM16.48 4.994V25h-3.83v-1.187c0-1.492-1.177-2.709-2.597-2.709H6.426c-1.417 0-2.588 1.217-2.588 2.71V25H0V4.994h16.479Zm-9.86 4.93a.87.87 0 0 0-.058.315v1.704c0 .106.02.206.058.304a.81.81 0 0 0 .413.447.75.75 0 0 0 .299.06h1.625c.1 0 .206-.02.299-.06a.791.791 0 0 0 .413-.447.814.814 0 0 0 .058-.304V10.24a.873.873 0 0 0-.058-.315.81.81 0 0 0-.163-.264.766.766 0 0 0-.549-.233H7.331a.755.755 0 0 0-.712.497Zm-2.127 2.628a.875.875 0 0 0 .058-.315V10.33a.82.82 0 0 0-.058-.304.81.81 0 0 0-.413-.447.751.751 0 0 0-.299-.061H1.962c-.1 0-.205.02-.298.06a.799.799 0 0 0-.413.448.816.816 0 0 0-.058.304v1.907c0 .107.02.217.058.315a.807.807 0 0 0 .163.264.762.762 0 0 0 .548.233H3.78a.754.754 0 0 0 .712-.497Zm7.494-2.526a.816.816 0 0 0-.058.304v1.907c0 .107.02.217.058.315a.761.761 0 0 0 .712.497h1.818a.756.756 0 0 0 .712-.497.875.875 0 0 0 .058-.315V10.33a.82.82 0 0 0-.058-.304.809.809 0 0 0-.414-.447.751.751 0 0 0-.298-.061h-1.818c-.1 0-.205.02-.298.06a.798.798 0 0 0-.414.448Zm-2.27 7.883a.816.816 0 0 0 .058-.305V15.85a.877.877 0 0 0-.058-.314.76.76 0 0 0-.712-.497H7.33a.756.756 0 0 0-.712.497.87.87 0 0 0-.058.314v1.755c0 .107.02.207.058.305a.812.812 0 0 0 .414.446c.093.04.197.06.298.06h1.674c.1 0 .205-.02.298-.06a.811.811 0 0 0 .413-.446Zm-5.224.253a.874.874 0 0 0 .058-.314V15.95a.874.874 0 0 0-.058-.315.813.813 0 0 0-.163-.264.766.766 0 0 0-.549-.233H1.962a.757.757 0 0 0-.711.497.87.87 0 0 0-.058.315v1.897c0 .106.02.216.058.314a.804.804 0 0 0 .163.264.762.762 0 0 0 .548.233H3.78a.754.754 0 0 0 .712-.497Zm7.658.264a.762.762 0 0 0 .548.233h1.818a.755.755 0 0 0 .712-.497.874.874 0 0 0 .058-.314V15.95a.873.873 0 0 0-.058-.315.812.812 0 0 0-.163-.264.767.767 0 0 0-.549-.233h-1.818a.757.757 0 0 0-.712.497.87.87 0 0 0-.057.315v1.896c0 .107.019.217.057.315a.804.804 0 0 0 .164.264Zm-6.775 5.389c0-.599.466-1.091 1.05-1.091h3.629c.588 0 1.052.492 1.052 1.09v1.183H5.375v-1.182Z"/>
</svg>
