<svg xmlns="http://www.w3.org/2000/svg" width="25" height="25" fill="none" viewBox="0 0 27.004 27.004">
  <path fill="#FFF" fill-rule="evenodd" d="m25.293 26.707-7.328-7.328 1.415-1.414 7.327 7.328-1.414 1.414ZM11.345 22.69q-4.7 0-8.022-3.323Q0 16.044 0 11.345q0-4.7 3.323-8.022Q6.646 0 11.345 0t8.022 3.323q3.323 3.323 3.323 8.022t-3.323 8.022q-3.323 3.323-8.022 3.323Zm0-2q3.87 0 6.608-2.737 2.737-2.737 2.737-6.608 0-3.87-2.737-6.608Q15.216 2 11.345 2q-3.87 0-6.608 2.737Q2 7.474 2 11.345q0 3.87 2.737 6.608 2.737 2.737 6.608 2.737Zm15.334 4.603h.028a.99.99 0 0 1 0 1.414.99.99 0 0 1-1.414 0v-.028l1.386-1.386Z"/>
</svg>
