<svg aria-hidden="true" style="position: absolute; width: 0; height: 0; overflow: hidden;" version="1.1" xmlns="http://www.w3.org/2000/svg" xmlns:xlink="http://www.w3.org/1999/xlink">
  <defs>
    <symbol id="icon-arrow" viewBox="0 0 19 32">
      <path fill="none"  stroke-width="2px" d="M18.576 0.585l-17.384 15.804 17.384 15.014"></path>
    </symbol>
    <symbol id="icon-house" viewBox="0 0 32 32">
      <path d="M31.806 9.489l-3.406-2.060v-6.996c0-0 0-0.001 0-0.002 0-0.221-0.179-0.399-0.399-0.399-0.001 0-0.001 0-0.002 0h-5.050c-0 0-0.001 0-0.002 0-0.221 0-0.399 0.179-0.399 0.399 0 0.001 0 0.001 0 0.002v-0 3.459l-6.341-3.834c-0.038-0.023-0.082-0.039-0.129-0.047l-0.002-0c-0.028-0.007-0.060-0.011-0.093-0.011-0.076 0-0.147 0.021-0.207 0.058l0.002-0.001-15.586 9.434c-0.116 0.070-0.192 0.195-0.194 0.338v3.301c0 0.001 0 0.001 0 0.002 0 0.22 0.179 0.399 0.399 0.399 0.075 0 0.145-0.021 0.204-0.056l-0.002 0.001 2.347-1.371v16.119h-1.117c-0.22 0-0.399 0.179-0.399 0.399v0 2.976c0 0.221 0.178 0.401 0.399 0.401h28.335c0.221 0 0.401-0.179 0.401-0.401v0-2.976c-0.001-0.221-0.18-0.399-0.401-0.399 0 0 0 0 0 0h-1.117v-16.117l2.348 1.371c0.058 0.034 0.127 0.054 0.201 0.054 0.221 0 0.4-0.179 0.401-0.4v-3.301c-0-0.144-0.077-0.27-0.192-0.34l-0.002-0.001zM23.349 0.832h4.251v6.114l-4.251-2.571v-3.543zM29.768 31.2h-27.535v-2.176h27.535v2.176zM19.599 28.224h-7.2v-12.494h7.2v12.494zM28.251 28.224h-7.851v-12.894c0-0 0-0.001 0-0.002 0-0.22-0.179-0.399-0.399-0.399-0.001 0-0.001 0-0.002 0h-8c-0.22 0-0.399 0.179-0.399 0.399v0 12.894h-7.852v-16.587l12.245-7.159 12.256 7.16v16.587zM31.198 12.434l-15.005-8.766c-0.058-0.034-0.128-0.055-0.202-0.055s-0.144 0.020-0.204 0.056l0.002-0.001-14.99 8.765v-2.376l15.194-9.195 15.206 9.195v2.377z"></path>
    </symbol>
    <symbol id="icon-arrow1" viewBox="0 0 36 32">
      <path d="M1.062 17.414c-0.362-0.362-0.586-0.862-0.586-1.414s0.224-1.052 0.586-1.414l12.728-12.728c0.364-0.377 0.874-0.611 1.439-0.611 1.105 0 2 0.895 2 2 0 0.565-0.234 1.074-0.61 1.438l-0.001 0.001-11.314 11.314 11.314 11.314c0.377 0.364 0.611 0.874 0.611 1.439 0 1.105-0.895 2-2 2-0.565 0-1.074-0.234-1.438-0.61l-0.001-0.001-12.73-12.728zM36 18h-33.524v-4h33.524v4z"></path>
    </symbol>
    <symbol id="icon-burger" viewBox="0 0 46 32">
      <path d="M45.714 29.726c0 1.257-1.019 2.274-2.274 2.274h-18.309c-1.256 0-2.274-1.018-2.274-2.274s1.018-2.274 2.274-2.274h18.309c1.257 0 2.274 1.017 2.274 2.274zM45.714 16c0 1.257-1.019 2.274-2.274 2.274h-41.166c-1.256 0-2.274-1.018-2.274-2.274s1.018-2.274 2.274-2.274h41.166c1.257 0 2.274 1.019 2.274 2.274zM43.44 4.549c1.256 0 2.274-1.018 2.274-2.274s-1.018-2.274-2.274-2.274v0h-27.451c-1.256 0-2.274 1.018-2.274 2.274s1.018 2.274 2.274 2.274v0h27.451z"></path>
    </symbol>
    <symbol id="icon-hrest" viewBox="0 0 32 32">
      <path stroke-linejoin="miter" stroke-linecap="round" stroke-miterlimit="4" stroke-width="4.5714" d="M2.286 2.286l13.714 13.714 13.714-13.714M2.286 29.714l13.714-13.714 13.714 13.714"></path>
    </symbol>
  </defs>
</svg>

