<svg aria-hidden="true" style="position: absolute; width: 0; height: 0; overflow: hidden;" version="1.1" xmlns="http://www.w3.org/2000/svg" xmlns:xlink="http://www.w3.org/1999/xlink">
<defs>
   <symbol id="icon-11_buzz" viewBox="0 0 99 32">
      <path d="M20.426 15.307c1.642 0.132 3.022 0.793 4.205 2.045 1.183 1.254 1.773 2.969 1.773 5.148 0 2.638-0.853 4.815-2.627 6.4-1.773 1.582-4.269 2.374-7.619 2.374h-16.157v-31.274h16.092c2.824 0 5.123 0.793 6.831 2.31 1.707 1.583 2.56 3.629 2.56 6.202 0 1.978-0.525 3.496-1.642 4.685-1.116 1.187-2.233 1.781-3.481 1.913l0.065 0.198zM7.686 12.932h6.699c1.117 0 2.037-0.33 2.759-0.989 0.657-0.661 1.050-1.453 1.050-2.574 0-0.989-0.328-1.715-0.985-2.31s-1.51-0.857-2.495-0.857h-7.030v6.73zM14.78 25.073c1.183 0 2.168-0.331 2.824-0.924 0.657-0.594 0.985-1.453 0.985-2.574 0-1.055-0.328-1.848-1.052-2.44-0.657-0.594-1.576-0.924-2.627-0.924h-7.226v6.862h7.094zM53.005 31.274h-7.421v-2.243c-1.841 1.98-4.271 2.969-7.161 2.969-2.758 0-4.925-0.924-6.567-2.705s-2.496-4.157-2.496-7.061v-14.383h7.356v12.8c0 1.386 0.394 2.507 1.117 3.366 0.722 0.857 1.707 1.252 2.89 1.252 1.51 0 2.692-0.526 3.546-1.582 0.853-1.056 1.248-2.706 1.248-4.949v-10.887h7.421l0.065 23.423zM75.928 31.274h-19.705v-1.384l9.261-16.102h-8.999v-5.937h19.311v1.386l-9.263 16.099h9.327v5.938h0.065zM98.784 31.274h-19.64v-1.384l9.195-16.102h-8.998v-5.937h19.31v1.386l-9.262 16.099h9.327l0.065 5.938z"></path>
   </symbol>
   <symbol id="icon-12_chase" viewBox="0 0 172 32">
      <path d="M58.109 0.023v12.685h-17.672v-12.685l-6.436-0.005v31.982h6.436v-13.741h17.672v13.741h6.447v-31.977h-6.445zM143.735 0.025v31.968h28.237l-3.576-5.628h-18.207v-8.102h17.631v-5.425h-17.631v-7.319h18.178l3.502-5.495h-28.134zM10.076 0.016c-6.692 0-10.076 4.071-10.076 9.991v11.94c0 6.854 4.358 10.053 10.044 10.053h20.194l-3.744-5.848h-15.204c-3.23 0-4.635-1.165-4.635-4.78v-10.833c0-3.495 1.183-4.858 4.722-4.858h15.274l3.596-5.666h-20.171zM115.486 0.007c-3.866 0-7.829 2.325-7.829 8.302v1.536c0 6.231 3.813 8.611 7.628 8.627h13.393c1.389 0 2.519 0.231 2.519 2.583v2.715c-0.035 2.113-1.089 2.595-2.568 2.595h-17.617l-3.608 5.629h21.642c5.218 0 8.761-2.597 8.761-8.593v-2.205c0-5.797-3.292-8.537-8.395-8.537h-12.787c-1.417 0-2.406-0.388-2.406-2.487v-2.212c0-1.788 0.678-2.44 2.33-2.44l16.777-0.007 3.507-5.513-21.345 0.007zM83.257 0.025l-15.163 31.975h7.167l2.953-6.604h16.478l2.944 6.602h7.199l-15.2-31.972h-6.378zM86.436 6.662l5.827 13.292h-11.615l5.79-13.292z"></path>
   </symbol>
   <symbol id="icon-13_25_microsoft" viewBox="0 0 150 32">
      <path d="M15.206 15.206h-15.206v-15.206h15.206v15.206zM16.789 15.206h15.204v-15.206h-15.203v15.206zM149.892 14.477v-2.636h-3.277v-4.098l-0.11 0.032-3.135 0.961v3.104h-4.853v-1.728c-0.048-0.656 0.143-1.305 0.535-1.833 0.346-0.379 0.843-0.616 1.394-0.616 0.038 0 0.075 0.001 0.112 0.003l-0.005-0c0.492 0.006 0.976 0.116 1.421 0.323l0.121 0.054v-2.774l-0.056-0.021c-0.488-0.155-1.048-0.245-1.63-0.245-0.066 0-0.133 0.001-0.198 0.003l0.010-0c-0.024-0-0.053-0.001-0.081-0.001-0.914 0-1.774 0.23-2.525 0.635l0.028-0.014c-0.75 0.408-1.353 1.004-1.758 1.725l-0.011 0.022c-0.395 0.717-0.628 1.572-0.628 2.481 0 0.030 0 0.061 0.001 0.091l-0-0.005v1.9h-2.279v2.636h2.279v11.104h3.272v-11.104h4.854v7.055c0 2.908 1.369 4.378 4.074 4.378 0.466-0.003 0.933-0.054 1.389-0.154 0.35-0.059 0.691-0.167 1.011-0.32l0.045-0.025v-2.661l-0.134 0.089c-0.204 0.127-0.425 0.223-0.657 0.283-0.21 0.064-0.428 0.102-0.648 0.11-0.045 0.004-0.098 0.007-0.151 0.007-0.485 0-0.924-0.197-1.241-0.514v0c-0.285-0.425-0.455-0.948-0.455-1.511 0-0.088 0.004-0.175 0.012-0.261l-0.001 0.011v-6.487h3.274zM67.107 5.986h-0.003c-0.008-0-0.017-0-0.027-0-0.523 0-0.998 0.206-1.348 0.542l0.001-0.001c-0.356 0.327-0.578 0.794-0.578 1.313 0 0.012 0 0.023 0 0.035l-0-0.002c-0 0.012-0 0.026-0 0.039 0 0.508 0.219 0.964 0.567 1.28l0.001 0.001c0.374 0.35 0.871 0.54 1.383 0.528 0.514 0.010 1.011-0.178 1.389-0.525 0.355-0.317 0.578-0.777 0.578-1.288 0-0.013-0-0.025-0-0.038l0 0.002c0-0.005 0-0.012 0-0.018 0-0.517-0.216-0.983-0.563-1.314l-0.001-0.001c-0.348-0.344-0.827-0.556-1.355-0.556-0.016 0-0.032 0-0.048 0.001l0.002-0zM59.038 10.826v14.757h3.299v-19.175h-4.563l-5.804 14.241-5.631-14.241h-4.754v19.174h3.1v-14.759h0.107l5.946 14.757h2.341l5.857-14.757 0.105 0.002zM125.804 11.504c-0.118-0.007-0.256-0.011-0.394-0.011-1.923 0-3.669 0.756-4.958 1.987l0.003-0.003c-1.204 1.312-1.942 3.069-1.942 4.998 0 0.137 0.004 0.273 0.011 0.409l-0.001-0.019c-0.006 0.104-0.009 0.227-0.009 0.35 0 1.856 0.721 3.543 1.898 4.797l-0.003-0.004c1.228 1.181 2.899 1.908 4.741 1.908 0.113 0 0.226-0.003 0.338-0.008l-0.016 0.001c0.102 0.005 0.222 0.008 0.342 0.008 1.91 0 3.641-0.767 4.902-2.010l-0.001 0.001c1.204-1.308 1.942-3.062 1.942-4.988 0-0.122-0.003-0.242-0.009-0.362l0.001 0.017c0.007-0.116 0.011-0.252 0.011-0.388 0-1.843-0.692-3.524-1.831-4.797l0.006 0.007c-1.202-1.174-2.848-1.898-4.662-1.898-0.129 0-0.257 0.004-0.384 0.011l0.018-0.001v-0.003zM99.595 11.509c-0.118-0.007-0.255-0.011-0.394-0.011-1.922 0-3.668 0.756-4.956 1.987l0.003-0.003c-1.205 1.312-1.944 3.069-1.944 4.999 0 0.136 0.004 0.271 0.011 0.405l-0.001-0.019c-0.006 0.105-0.009 0.227-0.009 0.35 0 1.856 0.722 3.543 1.9 4.796l-0.003-0.004c1.227 1.181 2.899 1.908 4.739 1.908 0.114 0 0.227-0.003 0.339-0.008l-0.016 0.001c0.102 0.005 0.222 0.008 0.342 0.008 1.91 0 3.641-0.767 4.902-2.010l-0.001 0.001c1.203-1.308 1.94-3.061 1.94-4.986 0-0.122-0.003-0.244-0.009-0.364l0.001 0.017c0.007-0.116 0.011-0.252 0.011-0.389 0-1.843-0.692-3.524-1.831-4.797l0.006 0.007c-1.202-1.174-2.848-1.898-4.662-1.898-0.129 0-0.257 0.004-0.384 0.011l0.018-0.001v-0.003zM113.246 11.507c-0.075-0.003-0.162-0.005-0.25-0.005-1.335 0-2.566 0.442-3.556 1.188l0.015-0.011c-0.902 0.69-1.478 1.767-1.478 2.978 0 0.025 0 0.050 0.001 0.075l-0-0.004c-0.011 0.584 0.097 1.163 0.318 1.703 0.22 0.498 0.555 0.936 0.977 1.278 0.573 0.434 1.229 0.807 1.93 1.090l0.057 0.020c0.567 0.223 1.119 0.481 1.655 0.772 0.28 0.146 0.528 0.35 0.727 0.597 0.128 0.202 0.204 0.448 0.204 0.711 0 0.024-0.001 0.048-0.002 0.072l0-0.003c0 0.923-0.691 1.374-2.114 1.374-0.645-0.016-1.258-0.135-1.829-0.341l0.040 0.013c-0.699-0.232-1.306-0.546-1.851-0.941l0.020 0.014-0.137-0.097v3.151l0.049 0.022c0.557 0.242 1.14 0.422 1.735 0.535 0.61 0.134 1.23 0.205 1.853 0.213 0.098 0.006 0.213 0.009 0.329 0.009 1.38 0 2.655-0.445 3.691-1.199l-0.018 0.012c0.91-0.704 1.491-1.796 1.491-3.024 0-0.034-0-0.068-0.001-0.102l0 0.005c0.001-0.029 0.001-0.064 0.001-0.098 0-0.861-0.303-1.651-0.809-2.27l0.005 0.006c-0.739-0.767-1.652-1.361-2.675-1.72l-0.048-0.015c-0.742-0.252-1.385-0.594-1.96-1.022l0.019 0.013c-0.243-0.254-0.392-0.598-0.392-0.978 0-0.028 0.001-0.056 0.002-0.084l-0 0.004c-0-0.005-0-0.012-0-0.018 0-0.395 0.195-0.745 0.493-0.958l0.004-0.002c0.407-0.282 0.898-0.42 1.393-0.393 0.592 0.003 1.162 0.096 1.697 0.266l-0.041-0.011c0.514 0.15 1.003 0.376 1.448 0.672l0.134 0.091v-2.984l-0.051-0.022c-0.421-0.174-0.916-0.316-1.428-0.403l-0.042-0.006c-0.481-0.099-1.036-0.159-1.604-0.167l-0.006-0 0.003-0.003zM78.327 11.509c-0.048-0.001-0.104-0.002-0.161-0.002-1.381 0-2.679 0.351-3.812 0.968l0.042-0.021c-1.113 0.621-2 1.532-2.574 2.631l-0.017 0.035c-0.562 1.103-0.891 2.407-0.891 3.787 0 0.057 0.001 0.114 0.002 0.171l-0-0.009c-0 0.028-0.001 0.061-0.001 0.094 0 1.262 0.321 2.45 0.885 3.485l-0.019-0.038c0.565 1.037 1.39 1.87 2.388 2.429l0.031 0.016c0.987 0.542 2.163 0.86 3.413 0.86 0.042 0 0.085-0 0.127-0.001l-0.006 0c0.073 0.003 0.16 0.004 0.247 0.004 1.338 0 2.597-0.34 3.695-0.938l-0.041 0.020 0.043-0.024v-2.96l-0.137 0.099c-0.482 0.35-1.015 0.627-1.58 0.823-0.497 0.185-1.019 0.286-1.549 0.301-0.057 0.003-0.125 0.005-0.192 0.005-1.108 0-2.111-0.453-2.833-1.184l-0-0c-0.699-0.801-1.125-1.855-1.125-3.009 0-0.091 0.003-0.181 0.008-0.271l-0.001 0.012c-0.004-0.069-0.006-0.15-0.006-0.231 0-1.198 0.443-2.293 1.174-3.13l-0.005 0.006c0.724-0.772 1.751-1.254 2.89-1.254 0.050 0 0.1 0.001 0.149 0.003l-0.007-0c1.114 0.016 2.193 0.393 3.076 1.070l0.137 0.099v-3.119l-0.045-0.025c-0.433-0.228-0.934-0.403-1.463-0.501l-0.033-0.005c-0.542-0.12-1.165-0.191-1.804-0.194h-0.004zM87.347 14.221v-2.379h-3.231v13.74h3.231v-7.030c-0.003-0.064-0.005-0.14-0.005-0.216 0-1.006 0.303-1.941 0.823-2.719l-0.011 0.018c0.449-0.67 1.203-1.105 2.058-1.105 0.012 0 0.023 0 0.035 0l-0.002-0c0.329 0.005 0.656 0.053 0.971 0.143 0.267 0.057 0.522 0.161 0.754 0.302l0.137 0.1v-3.258l-0.053-0.022c-0.335-0.124-0.723-0.195-1.127-0.195-0.049 0-0.097 0.001-0.145 0.003l0.007-0c-0.010-0-0.022-0-0.034-0-0.813 0-1.558 0.293-2.134 0.779l0.005-0.004c-0.555 0.489-0.982 1.11-1.233 1.814l-0.010 0.031h-0.037zM68.692 11.841h-3.231v13.742h3.231v-13.742zM125.66 23.237c-0.054 0.003-0.117 0.005-0.18 0.005-1.035 0-1.965-0.453-2.6-1.172l-0.003-0.004c-0.63-0.823-1.009-1.867-1.009-3 0-0.106 0.003-0.212 0.010-0.317l-0.001 0.014c-0.006-0.097-0.010-0.209-0.010-0.323 0-1.155 0.379-2.221 1.019-3.081l-0.010 0.014c0.63-0.732 1.558-1.193 2.593-1.193 0.057 0 0.115 0.001 0.171 0.004l-0.008-0c0.048-0.002 0.105-0.004 0.162-0.004 1.003 0 1.904 0.439 2.52 1.135l0.003 0.004c0.62 0.83 0.993 1.877 0.993 3.010 0 0.124-0.004 0.247-0.013 0.369l0.001-0.016c0.008 0.11 0.013 0.239 0.013 0.369 0 1.134-0.35 2.186-0.948 3.055l0.012-0.018c-0.606 0.708-1.5 1.155-2.499 1.155-0.076 0-0.151-0.003-0.226-0.008l0.010 0.001zM99.452 23.237c-0.054 0.003-0.118 0.005-0.182 0.005-1.035 0-1.965-0.453-2.6-1.172l-0.003-0.004c-0.629-0.823-1.007-1.866-1.007-2.998 0-0.106 0.003-0.211 0.010-0.316l-0.001 0.014c-0.006-0.097-0.010-0.209-0.010-0.323 0-1.155 0.379-2.221 1.019-3.081l-0.010 0.014c0.63-0.732 1.557-1.193 2.593-1.193 0.058 0 0.115 0.001 0.172 0.004l-0.008-0c0.048-0.002 0.105-0.004 0.161-0.004 1.003 0 1.904 0.439 2.521 1.135l0.003 0.004c0.62 0.83 0.993 1.877 0.993 3.010 0 0.124-0.004 0.247-0.013 0.369l0.001-0.016c0.008 0.11 0.013 0.239 0.013 0.369 0 1.134-0.35 2.186-0.948 3.055l0.012-0.018c-0.605 0.708-1.499 1.153-2.496 1.153-0.077 0-0.153-0.003-0.229-0.008l0.010 0.001zM15.206 31.998h-15.206v-15.206h15.206v15.206zM16.789 31.998h15.204v-15.206h-15.203v15.206z"></path>
   </symbol>
   <symbol id="icon-14_guss" viewBox="0 0 134 32">
      <path d="M29.752 21.375v6.899c-2.509 2.205-8.501 3.517-12.963 3.517-4.455 0-16.789-2.76-16.789-15.726 0-12.967 11.74-15.761 16.474-15.761 4.742 0 9.792 0.86 12.717 2.794v6.067c0 0.758-1.045 0.69-1.045 0-0.070-1.035-2.856-7.238-9.825-7.103-7.524 0.153-12.608 6.006-12.608 13.725 0 7.718 4.941 14.344 12.402 14.136 2.421-0.067 4.947-0.825 6.169-1.831l0.028-6.719c0-1.928-1.183-2.618-2.365-2.618-0.769 0-0.769-1.102 0-1.102h10.17c0.765 0 0.765 1.17 0 1.102-1.177 0-2.365 0.69-2.365 2.618zM98.307 9.173c0 0.757-0.765 0.689-0.765 0-0.074-1.035-2.856-7.448-9.825-7.307-7.523 0.147-12.614 6.209-12.614 13.927 0 7.719 4.879 14.55 12.334 14.347 7.455-0.209 11.008-7.516 11.288-8.483s0.765-0.825 0.765-0.067v5.654c-3.061 2.205-8.849 4.552-13.304 4.552-4.456 0-16.79-2.76-16.79-15.726 0-12.973 11.705-16.071 16.441-16.071 4.742 0 9.546 1.17 12.476 3.098v6.073h-0.006zM66.745 0.757c1.114 0 1.114 1.034 0 1.034-1.183 0-2.365 0.69-2.365 2.618l-0.136 15.071c0 7.215-5.913 12.519-13.208 12.519s-12.991-5.304-12.991-12.519v-15.069c0-1.934-1.188-2.618-2.371-2.618-1.113 0-1.113-1.034 0-1.034h10.312c1.113 0 1.113 1.034 0 1.034-1.188 0-2.371 0.69-2.371 2.618l-0.013 16.829c0 5.089 4.205 9.216 9.347 9.216 5.141 0 9.311-5.162 9.311-10.246l-0.25-15.8c0-1.934-1.183-2.618-2.371-2.618-1.109 0-1.109-1.034 0-1.034h7.105zM132.377 9.17c0 0.758-0.765 0.69-0.765 0-0.070-1.034-2.856-7.446-9.825-7.304-7.524 0.146-12.614 6.208-12.614 13.927 0 7.718 4.878 14.549 12.333 14.344 7.456-0.202 11.009-7.513 11.289-8.481 0.278-0.967 0.771-0.825 0.771-0.067v5.654c-3.068 2.205-8.849 4.552-13.311 4.552-4.455 0-16.789-2.76-16.789-15.726 0-12.971 11.705-16.070 16.445-16.070 4.737 0 9.547 1.17 12.472 3.098v6.073h-0.006z"></path>
   </symbol>
   <symbol id="icon-15_21_airbvb" viewBox="0 0 102 32">
      <path d="M53.719 8.040c0.001 0.021 0.001 0.046 0.001 0.070 0 1.144-0.927 2.071-2.071 2.071s-2.071-0.927-2.071-2.071c0-0.025 0-0.049 0.001-0.074l-0 0.004c0-1.154 0.891-2.082 2.069-2.082 1.179 0.032 2.071 0.962 2.071 2.082zM45.184 12.237v0.512s-0.987-1.282-3.088-1.282c-3.471 0-6.178 2.658-6.178 6.343 0 3.651 2.674 6.341 6.177 6.341 2.134 0 3.089-1.313 3.089-1.313v0.544c0 0.257 0.192 0.448 0.446 0.448h2.578v-12.044h-2.578c-0.245 0.007-0.441 0.205-0.446 0.449v0.001zM45.184 19.956c-0.477 0.705-1.433 1.314-2.578 1.314-2.039 0-3.599-1.282-3.599-3.461 0-2.178 1.56-3.46 3.597-3.46 1.115 0 2.134 0.642 2.579 1.313v4.293zM50.12 11.787h3.057v12.045h-3.058v-12.045zM95.782 11.467c-2.102 0-3.090 1.283-3.090 1.283v-6.761h-3.057v17.841h2.579c0.245-0.005 0.441-0.203 0.446-0.447v-0.545s0.987 1.313 3.088 1.313c3.471 0 6.178-2.691 6.178-6.342s-2.706-6.343-6.144-6.343zM95.272 21.238c-1.179 0-2.102-0.608-2.581-1.313v-4.293c0.478-0.64 1.496-1.313 2.579-1.313 2.039 0 3.599 1.281 3.599 3.459 0 2.178-1.559 3.459-3.597 3.459zM88.044 16.689v7.173h-3.058v-6.823c0-1.986-0.636-2.787-2.355-2.787-0.923 0-1.878 0.481-2.485 1.186v8.393h-3.054v-12.044h2.419c0.245 0.005 0.442 0.203 0.446 0.448v0.512c0.892-0.929 2.070-1.282 3.247-1.282 1.338 0 2.452 0.385 3.344 1.154 1.082 0.897 1.496 2.050 1.496 4.069zM69.671 11.467c-2.101 0-3.089 1.283-3.089 1.283v-6.761h-3.057v17.841h2.578c0.245-0.005 0.442-0.202 0.447-0.447v-0.545s0.987 1.313 3.088 1.313c3.471 0 6.178-2.691 6.178-6.342 0.031-3.651-2.674-6.343-6.146-6.343zM69.161 21.238c-1.178 0-2.101-0.608-2.578-1.313v-4.293c0.477-0.64 1.495-1.313 2.578-1.313 2.039 0 3.597 1.281 3.597 3.459 0 2.178-1.559 3.459-3.597 3.459zM60.882 11.467c0.923 0 1.401 0.161 1.401 0.161v2.85s-2.547-0.865-4.138 0.962v8.423h-3.058v-12.075h2.579c0.245 0.005 0.442 0.203 0.446 0.448v0.512c0.573-0.673 1.815-1.282 2.77-1.282zM29.136 22.743c-0.158-0.384-0.318-0.8-0.477-1.154-0.255-0.576-0.51-1.121-0.731-1.633l-0.032-0.031c-3.103-6.875-5.455-11.628-7.916-16.314l0.878 1.836-0.096-0.192c-0.26-0.499-0.516-1.001-0.763-1.506-0.319-0.577-0.637-1.186-1.146-1.763-1.019-1.281-2.485-1.986-4.043-1.986-1.592 0-3.025 0.705-4.077 1.922-0.477 0.576-0.827 1.185-1.145 1.762-0.248 0.505-0.504 1.007-0.764 1.506l-0.096 0.192c-2.452 4.805-4.84 9.673-7.037 14.478l-0.032 0.064c-0.223 0.513-0.477 1.058-0.733 1.633-0.117 0.242-0.278 0.623-0.428 1.009l-0.049 0.145c-0.414 1.185-0.542 2.306-0.381 3.459 0.358 2.418 1.945 4.395 4.095 5.3l0.045 0.017c0.747 0.325 1.617 0.513 2.532 0.513 0.016 0 0.033-0 0.049-0h-0.003c1.485-0.043 2.863-0.465 4.051-1.174l-0.038 0.021c1.307-0.737 2.548-1.794 3.949-3.332 1.401 1.538 2.674 2.595 3.949 3.332 1.149 0.687 2.527 1.11 4 1.152l0.012 0c0.891 0 1.783-0.159 2.578-0.512 2.23-0.898 3.789-2.947 4.141-5.318 0.252-1.121 0.125-2.242-0.288-3.427zM14.777 24.41c-1.72-2.179-2.835-4.229-3.216-5.958-0.159-0.736-0.192-1.378-0.096-1.955 0.068-0.508 0.249-0.964 0.517-1.356l-0.007 0.011c0.606-0.863 1.624-1.409 2.802-1.409s2.23 0.513 2.802 1.409c0.255 0.384 0.446 0.833 0.51 1.347 0.096 0.576 0.064 1.248-0.096 1.955-0.384 1.696-1.498 3.746-3.216 5.956zM27.48 25.914c-0.241 1.703-1.354 3.099-2.866 3.736l-0.031 0.012c-0.537 0.227-1.162 0.358-1.817 0.358-0.213 0-0.422-0.014-0.627-0.041l0.024 0.003c-0.907-0.116-1.725-0.411-2.448-0.848l0.028 0.016c-1.146-0.642-2.293-1.634-3.63-3.107 2.101-2.595 3.376-4.966 3.853-7.078 0.133-0.549 0.21-1.179 0.21-1.826 0-0.316-0.018-0.628-0.054-0.934l0.003 0.037c-0.127-0.825-0.43-1.562-0.871-2.196l0.011 0.017c-0.988-1.443-2.644-2.275-4.491-2.275s-3.501 0.866-4.488 2.275c-0.429 0.617-0.733 1.353-0.856 2.148l-0.004 0.029c-0.127 0.833-0.096 1.763 0.158 2.724 0.478 2.113 1.783 4.516 3.853 7.111-1.306 1.473-2.483 2.465-3.63 3.106-0.695 0.422-1.513 0.717-2.389 0.83l-0.031 0.003c-0.169 0.020-0.366 0.032-0.565 0.032-0.668 0-1.305-0.129-1.889-0.364l0.034 0.012c-1.543-0.649-2.657-2.045-2.894-3.723l-0.003-0.025c-0.026-0.198-0.041-0.426-0.041-0.659 0-0.66 0.12-1.292 0.34-1.876l-0.012 0.037c0.096-0.32 0.254-0.64 0.414-1.024 0.223-0.513 0.477-1.059 0.731-1.603l0.032-0.064c3.139-6.926 5.481-11.646 7.924-16.304l-0.919 1.923 0.096-0.193c0.254-0.48 0.51-0.993 0.764-1.474 0.254-0.512 0.541-0.993 0.892-1.41 0.668-0.767 1.559-1.185 2.547-1.185 0.987 0 1.879 0.417 2.547 1.185 0.351 0.418 0.637 0.899 0.892 1.41 0.255 0.481 0.51 0.994 0.764 1.474l0.096 0.192c1.302 2.306 3.633 7.038 5.877 11.818l1.096 2.597v0.032c0.255 0.513 0.477 1.089 0.733 1.602 0.159 0.384 0.318 0.704 0.414 1.024 0.254 0.832 0.35 1.633 0.222 2.467z"></path>
   </symbol>
   <symbol id="icon-16_24_uber" viewBox="0 0 150 32">
      <path d="M24.35 0h5.768v18.704c0 9.84-6.15 13.296-15.074 13.296-8.892 0-15.044-3.454-15.044-13.296v-17.954c0-0.522 0.254-0.75 0.764-0.75h5.77v18.412c0 5.898 2.55 8.34 8.51 8.34 5.992 0 8.54-2.442 8.54-8.34v-17.662c0-0.522 0.256-0.75 0.766-0.75zM89.656 5.116v7.886h14.596c0.256 0 0.352 0.13 0.256 0.392l-1.594 4.040c-0.16 0.36-0.382 0.52-0.86 0.52h-8.574c-2.804 0-3.824 0.88-3.824 2.804v5.572h19.76c0.256 0 0.35 0.13 0.256 0.392l-1.66 4.202c-0.158 0.36-0.38 0.52-0.86 0.52h-21.64c-1.658 0-2.294-0.584-2.294-1.856v-27.404c0-1.532 0.828-2.184 2.996-2.184h23.202c0.256 0 0.35 0.13 0.256 0.36l-1.66 4.234c-0.158 0.36-0.38 0.522-0.86 0.522h-17.496zM71.33 22.746c0 6.288-4.336 8.7-10.422 8.7h-16.128c-1.69 0-2.294-0.586-2.294-1.858v-27.404c0-1.532 0.794-2.184 2.994-2.184h13.1c5.736 0 11.28 1.010 11.28 7.984 0 2.998-1.050 5.54-3.568 6.876 3.474 0.944 5.036 4.138 5.036 7.886zM48.828 13.1h10.23c3.38 0 4.336-1.336 4.336-4.074 0-2.736-0.958-4.040-4.336-4.040h-10.23v8.114zM64.86 22.16c0-2.9-0.988-4.336-4.622-4.336h-7.554c-2.804 0-3.856 0.88-3.856 2.804v5.832h11.41c3.634 0 4.62-1.434 4.62-4.3zM149.64 31.446h-5.866c-0.478 0-0.67-0.196-0.86-0.52l-6.216-11.472h-5.704c-2.806 0-3.858 0.88-3.858 2.802v9.19h-5.608c-0.51 0-0.766-0.26-0.766-0.75v-28.512c0-1.532 0.83-2.184 2.998-2.184h13.164c7.68 0 12.302 2.052 12.302 9.68 0 5.896-2.772 8.21-6.216 9.122l6.918 12.090c0.126 0.196 0.126 0.554-0.288 0.554zM142.752 9.808c0-3.192-0.86-4.758-4.876-4.758h-10.74v9.516h10.74c4.016 0 4.876-1.532 4.876-4.758z"></path>
   </symbol>
   <symbol id="icon-22_cisco" viewBox="0 0 61 32">
      <path d="M45.815 0.386c0.248 0.246 0.387 0.583 0.387 0.931v14.009c0.001 0.018 0.001 0.039 0.001 0.060 0 0.229-0.059 0.443-0.163 0.63l0.003-0.007c-0.227 0.416-0.661 0.693-1.16 0.693s-0.933-0.277-1.157-0.686l-0.003-0.007c-0.1-0.181-0.159-0.398-0.159-0.628 0-0.020 0-0.039 0.001-0.059l-0 0.003v-14.009c0-0 0-0 0-0.001 0-0.728 0.59-1.317 1.318-1.317 0.364 0 0.694 0.148 0.933 0.387l0 0zM16.775 0.386c0.248 0.246 0.387 0.583 0.389 0.931v14.009c0 0.73-0.592 1.322-1.322 1.322s-1.322-0.592-1.322-1.322v0-14.009c0.001-0.729 0.592-1.319 1.321-1.319 0.365 0 0.696 0.148 0.935 0.388l0 0zM24.322 5.785c0.067 0.16 0.101 0.332 0.101 0.505v6.403c0 0.73-0.592 1.322-1.322 1.322s-1.322-0.592-1.322-1.322v-6.403c0.006-0.727 0.596-1.314 1.324-1.314 0.545 0 1.013 0.329 1.216 0.8l0.003 0.009zM9.803 5.785c0.066 0.16 0.1 0.333 0.1 0.506v6.403c-0.022 0.713-0.606 1.282-1.322 1.282s-1.299-0.569-1.322-1.28l-0-0.002v-6.403c0 0 0 0 0 0 0-0.73 0.592-1.322 1.322-1.322 0.548 0 1.018 0.333 1.218 0.807l0.003 0.009zM53.362 5.784c0.068 0.16 0.103 0.333 0.103 0.508v6.403c-0.001 0.73-0.592 1.321-1.322 1.321-0.004 0-0.009-0-0.013-0h0.001c-0.727-0.003-1.315-0.592-1.316-1.319v-6.407c0-0.727 0.589-1.317 1.316-1.317h0c0.004-0 0.009-0 0.014-0 0.545 0 1.013 0.331 1.214 0.803l0.003 0.009zM38.541 5.379c0.246 0.24 0.389 0.567 0.397 0.911v6.403c-0.031 0.704-0.609 1.262-1.318 1.262s-1.286-0.559-1.317-1.259l-0-0.003v-6.402c0.018-0.714 0.601-1.286 1.317-1.286 0.358 0 0.684 0.143 0.921 0.375l-0-0zM60.329 8.991c0.248 0.248 0.386 0.583 0.386 0.933v2.772c0.001 0.017 0.001 0.037 0.001 0.057 0 0.729-0.591 1.32-1.32 1.32s-1.32-0.591-1.32-1.32c0-0.020 0-0.040 0.001-0.059l-0 0.003v-2.772c0.002-0.728 0.592-1.317 1.32-1.317 0.364 0 0.693 0.147 0.931 0.385l-0-0zM2.256 8.992c0.248 0.248 0.389 0.583 0.389 0.931v2.769c-0.038 0.7-0.615 1.254-1.322 1.254s-1.284-0.554-1.322-1.251l-0-0.003v-2.769c0-0.729 0.591-1.32 1.32-1.32 0.365 0 0.696 0.148 0.935 0.388l0 0zM31.292 8.993c0.245 0.248 0.384 0.582 0.384 0.93v2.769c0 0.728-0.59 1.318-1.317 1.318s-1.317-0.59-1.317-1.317v0-2.769c0.003-0.728 0.593-1.316 1.321-1.316 0 0 0 0 0 0v0c0.349 0 0.684 0.14 0.929 0.386zM29.931 23.659c-0.040-0.012-1.161-0.322-2.081-0.322-1.067 0-1.648 0.357-1.648 0.863 0 0.644 0.783 0.867 1.22 1.005l0.735 0.234c1.729 0.549 2.516 1.732 2.516 3.018 0 2.65-2.331 3.541-4.369 3.541-1.022-0.010-2.013-0.115-2.973-0.306l0.102 0.017v-2.427c0.234 0.059 1.35 0.392 2.514 0.392 1.324 0 1.933-0.387 1.933-0.984 0-0.535-0.527-0.844-1.188-1.052-0.16-0.053-0.403-0.13-0.568-0.183-1.481-0.469-2.719-1.341-2.719-3.087 0-1.973 1.478-3.298 3.932-3.298 0.927 0.013 1.82 0.134 2.674 0.352l-0.079-0.017v2.253zM13.513 24.286c-0.639-0.355-1.401-0.564-2.212-0.564-0.009 0-0.017 0-0.026 0h0.001c-1.724 0-2.918 1.197-2.918 2.814 0 1.566 1.144 2.817 2.918 2.817 0.004 0 0.008 0 0.013 0 0.815 0 1.581-0.208 2.248-0.573l-0.024 0.012v2.832c-0.788 0.243-1.605 0.368-2.429 0.375-2.992 0-5.617-2.064-5.617-5.464 0-3.15 2.378-5.461 5.617-5.461 0.868 0.002 1.703 0.14 2.486 0.395l-0.057-0.016v2.832zM41.299 24.286c-0.642-0.355-1.407-0.563-2.22-0.563-0.007 0-0.013 0-0.020 0h0.001c-1.722 0-2.914 1.197-2.914 2.814 0 1.566 1.141 2.817 2.914 2.817 0.002 0 0.005 0 0.008 0 0.817 0 1.586-0.208 2.256-0.573l-0.025 0.012v2.832c-0.724 0.23-1.558 0.367-2.422 0.375l-0.004 0c-2.994 0-5.622-2.064-5.622-5.464 0-3.15 2.378-5.461 5.622-5.461 0.867 0.002 1.701 0.141 2.483 0.395l-0.057-0.016v2.832zM55.25 26.536c0 3.017-2.331 5.464-5.574 5.464-3.245 0-5.574-2.447-5.574-5.464 0-3.013 2.328-5.461 5.572-5.461 3.243 0 5.574 2.448 5.574 5.461zM19.835 31.813h-2.665v-10.551h2.663v10.552zM49.675 23.762c-0.009-0-0.019-0-0.030-0-1.504 0-2.724 1.219-2.724 2.724 0 0.018 0 0.035 0.001 0.053l-0-0.003v0.050c0 0 0 0 0 0 0 1.506 1.221 2.727 2.727 2.727 0.009 0 0.018-0 0.027-0h-0.001c0.008 0 0.018 0 0.028 0 0.757 0 1.441-0.309 1.934-0.807l0-0c0.489-0.493 0.792-1.172 0.792-1.922v0-0.092c0-0 0-0.001 0-0.001 0-1.507-1.222-2.729-2.728-2.729-0.009 0-0.018 0-0.027 0h0.001zM59.191 30.587h-0.471v1.225h-0.194v-1.224h-0.471v-0.165h1.137v0.165zM59.592 30.421l0.416 1.14h0.006l0.402-1.139h0.297v1.388h-0.198v-1.138h-0.007l-0.421 1.138h-0.182l-0.413-1.138h-0.008v1.138h-0.194v-1.388h0.304z"></path>
   </symbol>
   <symbol id="icon-23_ebay" viewBox="0 0 81 32">
      <path d="M31.704 6.737c-5.15-0.027-7.368 2.897-7.368 2.897v-9.634h-4.126v15.333c-0.197-2.819-1.64-8.596-10.104-8.596-10.11 0-10.149 7.624-10.097 9.605 0 0-0.5 8.921 10.198 8.921 9.196 0 9.644-5.598 9.644-5.598l-4.224 0.013s-0.829 3.079-5.401 2.998c-5.883-0.109-6.115-5.834-6.115-5.834h16.101v8.421h3.901l0.172-2.92s1.869 2.92 7.335 2.92c4.574 0 8.342-2.237 9.521-6.434-0.542 4.908 4.185 6.452 7.907 6.434 3.823-0.020 6.001-1.112 7.619-3.065l0.168 3.085 3.798-0.020v-11.461l-0.012-0.222c-0.099-2.075-0.31-6.481-8.876-6.816 0 0-8.224-0.697-9.336 5.026h4.362c0.216-0.697 1.128-2.476 4.691-2.408 4.177 0.072 4.94 1.684 4.921 4.093 0 0-3.587 0.013-4.783 0.013-2.033 0.013-8.839 0.519-10.216 4.229 0.078-0.465 0.128-1.008 0.138-1.561l0-0.011c0.111-5.933-4.665-9.381-9.819-9.408zM62.723 6.737h-4.723l9.381 17.743-3.618 7.52h4.571l12.507-25.263h-4.269l-6.934 13.784-6.915-13.784zM4.248 14.343s0.291-4.994 6.107-4.994c5.79-0.007 5.79 4.994 5.79 4.994h-11.896zM30.764 22.619c-6.508 0.079-6.402-6.547-6.402-6.547s-0.236-6.52 6.388-6.685c6.624-0.163 6.526 6.823 6.526 6.823s-0.013 6.329-6.513 6.408zM49.762 22.757s-4.136 0.007-4.381-3.144c-0.256-3.363 6.363-3.503 6.363-3.503l4.682-0.003c-0.005 0 0.751 6.742-6.663 6.651z"></path>
   </symbol>
</defs>
</svg>
