<svg xmlns="http://www.w3.org/2000/svg" fill="none" viewBox="0 0 138.003 22.402">
  <path fill="#495359" fill-rule="evenodd" d="M6.946 17.227a9.29 9.29 0 0 0 2.45-.322 6.97 6.97 0 0 0 2.138-.966 4.871 4.871 0 0 0 1.495-1.644c.376-.667.564-1.445.564-2.335 0-.835-.157-1.525-.472-2.07a3.837 3.837 0 0 0-1.184-1.31 6.063 6.063 0 0 0-1.495-.783 16.688 16.688 0 0 0-1.426-.46l-2.875-.782a8.191 8.191 0 0 1-1.035-.345 2.517 2.517 0 0 1-.84-.54c-.222-.23-.333-.525-.333-.886 0-.39.134-.728.403-1.012a2.622 2.622 0 0 1 1.058-.644c.437-.153.9-.222 1.391-.207a3.858 3.858 0 0 1 2.07.667c.629.422 1.035 1.035 1.219 1.84l3.381-.575c-.399-1.556-1.173-2.748-2.323-3.576C9.982.449 8.548.023 6.831 0c-1.135-.007-2.17.17-3.105.53s-1.683.908-2.242 1.644c-.56.736-.84 1.66-.84 2.771 0 .79.13 1.445.391 1.967a3.78 3.78 0 0 0 1 1.242c.4.314.81.556 1.231.724.43.169.805.3 1.127.391l4.301 1.265c.644.192 1.073.433 1.288.725.215.283.322.594.322.931 0 .46-.157.847-.471 1.162-.307.314-.702.552-1.185.713a4.697 4.697 0 0 1-1.495.241c-.92 0-1.74-.257-2.461-.77-.72-.514-1.196-1.246-1.426-2.197L0 11.822c.169 1.12.567 2.086 1.196 2.898a6.308 6.308 0 0 0 2.427 1.863c.989.43 2.096.644 3.323.644Zm9.152-.345h3.15v-7.52c0-.714.196-1.293.587-1.737.399-.453.924-.679 1.576-.679.682 0 1.215.23 1.598.69.391.453.587 1.089.587 1.91v7.336h3.128v-7.52c0-.714.195-1.293.586-1.737.399-.453.924-.679 1.576-.679.682 0 1.215.23 1.598.69.391.453.587 1.089.587 1.91v7.336h3.128V8.717c0-1.357-.364-2.453-1.093-3.289-.72-.843-1.79-1.265-3.208-1.265a4.71 4.71 0 0 0-2.197.518c-.667.345-1.2.816-1.598 1.414a3.672 3.672 0 0 0-1.38-1.403c-.598-.352-1.342-.529-2.231-.529-.752 0-1.442.15-2.07.449a4.293 4.293 0 0 0-1.564 1.207V4.462h-2.76v12.42Zm24.541.345c.958 0 1.763-.145 2.415-.437.66-.299 1.265-.774 1.817-1.426v1.518h2.737v-7.59c0-.567-.023-1.08-.069-1.54a3.706 3.706 0 0 0-.437-1.38c-.437-.829-1.081-1.411-1.932-1.749-.851-.337-1.825-.506-2.921-.506-1.495 0-2.676.322-3.542.966a4.8 4.8 0 0 0-1.771 2.507l2.829.897c.2-.567.548-.962 1.047-1.184.498-.223.977-.334 1.437-.334.736 0 1.284.138 1.645.414.36.269.57.694.632 1.277a89.496 89.496 0 0 0-3.082.494c-.89.154-1.633.338-2.231.552-.997.368-1.698.87-2.105 1.507-.406.628-.609 1.376-.609 2.242 0 .69.157 1.323.471 1.898.322.567.79 1.023 1.404 1.368.62.338 1.376.506 2.265.506Zm.667-2.46c-.537 0-.962-.12-1.276-.357-.315-.246-.472-.58-.472-1 0-.315.1-.583.299-.806.2-.23.529-.437.989-.62a9.31 9.31 0 0 1 1.3-.357c.52-.115 1.307-.26 2.357-.437-.008.299-.03.628-.069.989a2.813 2.813 0 0 1-.253.931c-.084.177-.245.395-.483.656-.23.26-.544.494-.943.701-.391.2-.874.3-1.449.3Zm9.292 2.115h3.151v-6.348c0-1.441.568-2.422 1.702-2.944.368-.176.778-.28 1.23-.31.46-.039.863-.004 1.208.103v-2.92a5.61 5.61 0 0 0-1.679.045 4.188 4.188 0 0 0-1.518.552 3.34 3.34 0 0 0-.77.61 4.236 4.236 0 0 0-.564.793v-2h-2.76v12.42Zm16.93 0v-2.599c-.735.1-1.406.13-2.012.092-.605-.038-1.046-.276-1.322-.713-.146-.23-.226-.536-.242-.92a67.967 67.967 0 0 1-.011-1.31V6.876h3.588V4.462H63.94v-3.45h-3.128v3.45h-2.116v2.415h2.116v4.738c0 .744.007 1.41.023 2.001a3.81 3.81 0 0 0 .483 1.725 2.984 2.984 0 0 0 1.472 1.323c.651.268 1.387.41 2.208.425.828.023 1.671-.046 2.53-.207Zm9.024.345c.844 0 1.66-.107 2.45-.322a6.972 6.972 0 0 0 2.139-.966 4.872 4.872 0 0 0 1.495-1.644c.376-.667.564-1.445.564-2.335 0-.835-.158-1.525-.472-2.07a3.838 3.838 0 0 0-1.184-1.31 6.067 6.067 0 0 0-1.495-.783 16.701 16.701 0 0 0-1.427-.46l-2.874-.782a8.188 8.188 0 0 1-1.035-.345 2.516 2.516 0 0 1-.84-.54c-.222-.23-.334-.525-.334-.886 0-.39.135-.728.403-1.012A2.621 2.621 0 0 1 75 3.128c.437-.153.9-.222 1.391-.207a3.858 3.858 0 0 1 2.07.667c.63.422 1.035 1.035 1.22 1.84l3.38-.575c-.398-1.556-1.173-2.748-2.323-3.576C79.588.449 78.156.023 76.439 0c-1.135-.007-2.17.169-3.106.53-.935.36-1.682.908-2.242 1.644-.56.736-.84 1.66-.84 2.771 0 .79.13 1.445.391 1.967a3.78 3.78 0 0 0 1.001 1.242c.399.314.809.556 1.23.724.43.169.805.3 1.127.391l4.302 1.265c.644.192 1.073.433 1.287.725.215.283.323.594.323.931 0 .46-.158.847-.472 1.162-.307.314-.701.552-1.184.713a4.697 4.697 0 0 1-1.495.241c-.92 0-1.74-.257-2.462-.77-.72-.514-1.195-1.246-1.425-2.197l-3.267.483c.17 1.12.568 2.086 1.197 2.898a6.307 6.307 0 0 0 2.426 1.863c.989.43 2.097.644 3.323.644Zm9.152 5.175h3.151v-5.968a5.18 5.18 0 0 0 1.346.586 6.059 6.059 0 0 0 1.621.207c1.142 0 2.143-.287 3.002-.862.858-.575 1.525-1.357 2-2.346.484-.99.725-2.105.725-3.347 0-1.265-.245-2.388-.736-3.37-.483-.988-1.165-1.766-2.047-2.334-.882-.567-1.916-.85-3.105-.85-.644 0-1.234.091-1.77.275a4.717 4.717 0 0 0-1.427.76v-.69h-2.76v17.94Zm5.612-7.958c-1.043 0-1.779-.345-2.208-1.035-.43-.697-.644-1.61-.644-2.737s.211-2.035.633-2.725c.429-.698 1.13-1.047 2.104-1.047.698 0 1.269.173 1.714.518.452.337.785.793 1 1.368.215.568.322 1.196.322 1.886a5.61 5.61 0 0 1-.31 1.91c-.207.567-.526 1.019-.955 1.356-.43.338-.981.506-1.656.506Zm12.214 2.783c.958 0 1.763-.145 2.415-.437.659-.299 1.265-.774 1.817-1.426v1.518h2.737v-7.59c0-.567-.023-1.08-.069-1.54a3.714 3.714 0 0 0-.437-1.38c-.437-.829-1.081-1.411-1.932-1.749-.851-.337-1.825-.506-2.921-.506-1.495 0-2.676.322-3.542.966a4.796 4.796 0 0 0-1.771 2.507l2.829.897c.199-.567.548-.962 1.046-1.184.499-.223.978-.334 1.438-.334.736 0 1.284.138 1.644.414.361.269.571.694.633 1.277a89.063 89.063 0 0 0-3.082.494c-.89.154-1.633.338-2.231.552-.997.368-1.698.87-2.105 1.507-.406.628-.61 1.376-.61 2.242 0 .69.158 1.323.472 1.898.322.567.79 1.023 1.403 1.368.621.338 1.376.506 2.266.506Zm.667-2.46c-.537 0-.963-.12-1.277-.357-.314-.246-.471-.58-.471-1 0-.315.099-.583.299-.806.199-.23.529-.437.989-.62.352-.131.785-.25 1.299-.357.522-.115 1.307-.26 2.358-.437-.008.299-.031.628-.069.989a2.84 2.84 0 0 1-.253.931c-.085.177-.246.395-.483.656-.23.26-.545.494-.943.701-.391.2-.874.3-1.449.3Zm14.766 2.46c1.441 0 2.653-.356 3.634-1.07.981-.712 1.648-1.728 2.001-3.047l-3.197-.667c-.184.598-.46 1.058-.828 1.38-.368.322-.905.483-1.61.483-.943 0-1.656-.333-2.139-1-.475-.675-.713-1.553-.713-2.634 0-1.035.226-1.897.678-2.587.46-.698 1.185-1.047 2.174-1.047.575 0 1.089.18 1.541.54.46.361.782.863.966 1.507l3.128-.828c-.276-1.28-.912-2.288-1.909-3.024-.989-.744-2.216-1.116-3.68-1.116-1.265 0-2.361.284-3.289.851a5.828 5.828 0 0 0-2.162 2.335c-.506.989-.759 2.112-.759 3.37 0 1.241.245 2.357.736 3.346a5.695 5.695 0 0 0 2.116 2.346c.92.575 2.024.862 3.312.862Zm13.371 0a6.103 6.103 0 0 0 3.301-.943c1.012-.628 1.751-1.51 2.219-2.645l-3.128-.897c-.475 1.043-1.334 1.564-2.576 1.564-.851 0-1.522-.237-2.012-.713-.483-.475-.782-1.157-.897-2.047h8.717c.13-1.502-.023-2.81-.46-3.921-.437-1.112-1.112-1.974-2.024-2.588-.913-.613-2.021-.92-3.324-.92-1.227 0-2.311.28-3.254.84-.943.552-1.683 1.33-2.22 2.334-.537 1.005-.805 2.185-.805 3.542 0 1.242.272 2.346.817 3.312a6.037 6.037 0 0 0 2.277 2.266c.973.544 2.096.816 3.369.816Zm-.046-10.396c.751 0 1.326.188 1.725.564.406.375.667.985.782 1.828h-5.474c.33-1.594 1.319-2.392 2.967-2.392Z"/>
</svg>