<svg aria-hidden="true" style="position: absolute; width: 0; height: 0; overflow: hidden;" version="1.1" xmlns="http://www.w3.org/2000/svg" xmlns:xlink="http://www.w3.org/1999/xlink">
<defs>
   <symbol id="icon-facebook" viewBox="0 0 17 32">
      <path d="M4.806 18.063h-3.965c-0.641 0-0.841-0.24-0.841-0.841v-4.846c0-0.641 0.24-0.841 0.841-0.841h3.965v-3.524c0-1.602 0.28-3.124 1.081-4.526 0.841-1.442 2.043-2.403 3.564-2.964 1.001-0.36 2.002-0.521 3.084-0.521h3.925c0.561 0 0.801 0.24 0.801 0.801v4.566c0 0.561-0.24 0.801-0.801 0.801-1.081 0-2.163 0-3.244 0.040-1.081 0-1.642 0.521-1.642 1.642-0.040 1.201 0 2.363 0 3.604h4.646c0.641 0 0.881 0.24 0.881 0.881v4.846c0 0.641-0.2 0.841-0.881 0.841h-4.646v13.056c0 0.681-0.2 0.921-0.921 0.921h-5.006c-0.601 0-0.841-0.24-0.841-0.841v-13.096z"></path>
   </symbol>
   <symbol id="icon-linkedin" viewBox="0 0 34 32">
      <path d="M30.4 0h-27.022c-1.858 0-3.378 1.44-3.378 3.2v25.6c0 1.76 1.52 3.2 3.378 3.2h27.022c1.858 0 3.378-1.44 3.378-3.2v-25.6c0-1.76-1.52-3.2-3.378-3.2zM10.133 27.2h-5.067v-14.4h5.067v14.4zM7.6 10.080c-1.689 0-3.040-1.28-3.040-2.88s1.351-2.88 3.040-2.88 3.040 1.28 3.040 2.88c0 1.6-1.351 2.88-3.040 2.88zM28.711 27.2h-5.067v-8.48c0-1.28-1.182-2.4-2.533-2.4s-2.533 1.12-2.533 2.4v8.48h-5.067v-14.4h5.067v1.92c0.844-1.28 2.702-2.24 4.222-2.24 3.209 0 5.911 2.56 5.911 5.6v9.12z"></path>
   </symbol>
   <symbol id="icon-telegram" viewBox="0 0 39 32">
      <path d="M39.384 3.788c-1.353 0.608-2.923 1.056-4.568 1.267l-0.084 0.009c1.673-1.005 2.93-2.558 3.535-4.406l0.016-0.057c-1.474 0.889-3.189 1.567-5.017 1.937l-0.103 0.017c-1.477-1.576-3.571-2.557-5.894-2.557-4.458 0-8.071 3.614-8.071 8.071 0 0.003 0 0.005 0 0.008v-0c0 0.639 0.054 1.255 0.187 1.84-6.731-0.339-12.651-3.542-16.611-8.404l-0.033-0.042c-0.692 1.17-1.102 2.578-1.103 4.081v0c0 2.797 1.438 5.276 3.586 6.71-1.345-0.037-2.596-0.401-3.689-1.016l0.040 0.021v0.089c0.004 3.894 2.753 7.146 6.416 7.924l0.053 0.009c-0.658 0.179-1.374 0.264-2.117 0.264-0.516 0-1.041-0.029-1.53-0.137 1.047 3.199 4.017 5.549 7.545 5.626-2.725 2.146-6.207 3.442-9.992 3.442-0.007 0-0.013 0-0.020 0h0.001c-0.662 0-1.297-0.029-1.931-0.11 3.478 2.272 7.737 3.624 12.312 3.624 0.026 0 0.052-0 0.078-0h-0.004c14.858 0 22.982-12.307 22.982-22.978 0-0.354-0.013-0.699-0.029-1.041 1.598-1.154 2.942-2.544 4.009-4.136l0.037-0.058z"></path>
   </symbol>
   <symbol id="icon-instagram" viewBox="0 0 32 32">
      <path d="M16 10.25c-3.176 0-5.75 2.574-5.75 5.75s2.574 5.75 5.75 5.75v0c3.176 0 5.75-2.574 5.75-5.75s-2.574-5.75-5.75-5.75v0zM16 20.25c-2.347 0-4.25-1.903-4.25-4.25s1.903-4.25 4.25-4.25c2.347 0 4.25 1.903 4.25 4.25v0c-0.007 2.344-1.906 4.243-4.249 4.25h-0.001zM21.5 3.75h-11c-3.728 0-6.75 3.022-6.75 6.75v0 11c0 3.728 3.022 6.75 6.75 6.75v0h11c3.728 0 6.75-3.022 6.75-6.75v0-11c0-3.728-3.022-6.75-6.75-6.75v0zM26.75 21.5c0 2.899-2.351 5.25-5.25 5.25v0h-11c-2.899 0-5.25-2.351-5.25-5.25v0-11c0-2.899 2.351-5.25 5.25-5.25v0h11c2.899 0 5.25 2.351 5.25 5.25v0 11zM23.75 9.5c0 0.69-0.56 1.25-1.25 1.25s-1.25-0.56-1.25-1.25v0c0-0.69 0.56-1.25 1.25-1.25s1.25 0.56 1.25 1.25v0z"></path>
   </symbol>
</defs>
</svg>
